<?xml version="1.0" encoding="UTF-8"?>
<!DOCTYPE svg PUBLIC "-//W3C//DTD SVG 1.1//EN" "http://www.w3.org/Graphics/SVG/1.1/DTD/svg11.dtd">
<!-- Creator: CorelDRAW X8 -->
<svg xmlns="http://www.w3.org/2000/svg" xml:space="preserve" width="3.59014in" height="3.83429in" version="1.1" style="shape-rendering:geometricPrecision; text-rendering:geometricPrecision; image-rendering:optimizeQuality; fill-rule:evenodd; clip-rule:evenodd"
viewBox="0 0 4247 4535"
 xmlns:xlink="http://www.w3.org/1999/xlink">
 <defs>
  <style type="text/css">
   <![CDATA[
    .fil0 {fill:#FEFEFE}
   ]]>
  </style>
 </defs>
 <g id="Layer_x0020_1">
  <metadata id="CorelCorpID_0Corel-Layer"/>
  <path class="fil0" d="M2065 10c-247,105 -498,230 -737,354l-1103 540c-210,103 -215,68 -215,340 1,433 -23,1907 0,2201 12,143 188,179 303,236l1669 813c197,97 250,15 566,-149 120,-62 246,-117 366,-177l1102 -540c211,-99 222,-65 221,-330 -2,-429 23,-1910 -1,-2197 -8,-100 -39,-110 -114,-146 -64,-30 -124,-63 -184,-93 -125,-62 -250,-118 -378,-182 -249,-126 -490,-240 -739,-362 -125,-60 -241,-114 -363,-178 -92,-49 -287,-176 -393,-130zm-1725 1063c112,97 1343,621 1375,707 27,242 -226,81 -325,35l-1198 -583 0 2141c37,64 356,195 440,234 233,108 1259,628 1386,670l1 -2136c-12,-56 -100,-58 -203,-124l12 -125c93,-32 132,-16 214,26 98,50 109,18 199,-27 85,-43 296,-164 399,-142 122,142 -17,178 -129,232 -76,36 -266,112 -302,177l0 2119 1813 -884 6 -2163c-72,19 -480,220 -527,259 -12,159 43,779 -40,849 -20,17 -114,51 -147,68 -177,91 -344,217 -481,153 -38,-142 -17,-639 -17,-827 -81,-52 -206,-106 -305,-153l-1544 -757c-103,-50 -221,42 -314,89 -80,39 -264,120 -313,162zm1324 -661c20,20 1,5 32,26l1623 794c237,119 179,-25 571,-158 -41,-47 -964,-486 -1098,-547 -186,-87 -366,-179 -549,-272 -236,-118 -247,58 -579,157zm-518 266c62,72 1286,638 1537,763 67,34 181,119 255,96 30,-9 98,-49 132,-66l131 -74c-333,-165 -670,-332 -1013,-497 -170,-82 -334,-165 -504,-250 -296,-148 -257,-130 -538,28zm1871 1036l-3 612 281 -131 2 -612 -280 131z"/>
 </g>
</svg>
