<?xml version="1.0" encoding="UTF-8"?>
<!DOCTYPE svg PUBLIC "-//W3C//DTD SVG 1.1//EN" "http://www.w3.org/Graphics/SVG/1.1/DTD/svg11.dtd">
<!-- Creator: CorelDRAW X8 -->
<svg xmlns="http://www.w3.org/2000/svg" xml:space="preserve" width="3.81534in" height="3.42934in" version="1.1" style="shape-rendering:geometricPrecision; text-rendering:geometricPrecision; image-rendering:optimizeQuality; fill-rule:evenodd; clip-rule:evenodd"
viewBox="0 0 5610 5042"
 xmlns:xlink="http://www.w3.org/1999/xlink">
 <defs>
  <style type="text/css">
   <![CDATA[
    .fil0 {fill:#FEFEFE}
   ]]>
  </style>
 </defs>
 <g id="Layer_x0020_1">
  <metadata id="CorelCorpID_0Corel-Layer"/>
  <g id="_2789446275088">
   <path class="fil0" d="M1656 754l1434 58c-30,32 -320,172 -499,321 -25,21 -43,46 -63,59 -122,84 -709,6 -870,82l718 45c-3,30 -211,263 -304,428l-865 60c-4,2 -10,4 -14,6l817 41c-55,149 -104,269 -157,428l-807 54c121,55 595,29 776,65l-43 386 -1438 73c101,43 1224,73 1435,83l58 398 -1364 57 1401 62c28,75 47,141 76,213 28,67 70,140 89,203l-1454 56 1525 64c49,59 98,147 142,202 60,75 128,124 167,199l-1964 51c-46,12 -26,7 -42,16l2122 54c59,11 217,154 320,212 53,30 76,30 115,71 -487,30 -999,28 -1488,44l-1119 40c-57,1 -114,1 -169,2 -28,1 -64,2 -91,3l-100 26c376,28 786,18 1172,41 714,42 1598,42 2344,71 192,8 385,18 577,13 203,-5 343,-52 529,-86l-50 -120c-378,82 -763,23 -1106,-93 -989,-332 -1613,-1396 -1319,-2428 83,-291 264,-603 472,-815 202,-205 529,-412 812,-490 671,-185 1256,-86 1770,330 44,36 151,142 184,159 52,-27 191,-120 225,-157 -330,-377 -912,-724 -1681,-702 -377,11 -758,40 -1139,48l-852 37c-50,3 -100,5 -150,8l-132 22z"/>
   <path class="fil0" d="M3702 2953c-38,34 -177,155 -214,209 20,57 83,107 135,146l229 -213c175,29 397,31 453,-216 34,-151 -52,-186 19,-272l288 -326c19,-20 22,-31 39,-53 64,-85 457,-499 490,-571l-951 816c-84,80 -337,-95 -475,169 -66,128 -31,179 -13,311zm238 -274c-149,60 -70,318 115,240 149,-62 53,-307 -115,-240z"/>
   <path class="fil0" d="M3702 83l3 222 471 12c118,-1 98,2 98,-234 0,-111 -34,-79 -283,-79 -62,0 -125,-1 -186,-1 -78,1 -103,-2 -103,80z"/>
   <polygon class="fil0" points="3846,592 4127,590 4129,357 3899,350 3845,351 "/>
  </g>
 </g>
</svg>
