<?xml version="1.0" encoding="UTF-8"?>
<!DOCTYPE svg PUBLIC "-//W3C//DTD SVG 1.1//EN" "http://www.w3.org/Graphics/SVG/1.1/DTD/svg11.dtd">
<!-- Creator: CorelDRAW X8 -->
<svg xmlns="http://www.w3.org/2000/svg" xml:space="preserve" width="2.98446in" height="3.08195in" version="1.1" style="shape-rendering:geometricPrecision; text-rendering:geometricPrecision; image-rendering:optimizeQuality; fill-rule:evenodd; clip-rule:evenodd"
viewBox="0 0 1123 1160"
 xmlns:xlink="http://www.w3.org/1999/xlink">
 <defs>
  <style type="text/css">
   <![CDATA[
    .fil0 {fill:#FDFEFF}
   ]]>
  </style>
 </defs>
 <g id="Layer_x0020_1">
  <metadata id="CorelCorpID_0Corel-Layer"/>
  <path class="fil0" d="M530 227c-204,23 -334,218 -276,409 16,50 38,78 64,112 43,55 70,114 80,187 4,23 -3,64 20,70l266 3c74,1 8,-51 77,-191 43,-86 104,-118 121,-236 29,-200 -154,-376 -352,-354zm-77 731l218 0c20,-80 15,-124 71,-207 38,-57 85,-93 93,-189 20,-256 -300,-387 -471,-209 -43,44 -81,117 -74,205 6,94 52,135 90,191 53,79 54,131 73,209z"/>
  <path class="fil0" d="M542 368c19,9 132,3 178,112 13,30 9,53 17,81 73,32 52,-100 -18,-171 -24,-24 -51,-43 -90,-55 -40,-12 -104,-26 -87,33z"/>
  <path class="fil0" d="M437 1160l251 0c31,0 46,-49 -8,-49l-239 0c-45,0 -37,49 -4,49z"/>
  <path class="fil0" d="M445 1085l235 0c49,0 47,-49 -4,-49l-231 0c-53,0 -47,49 0,49z"/>
  <path class="fil0" d="M272 801c-16,9 -110,107 -112,113 -9,25 16,38 38,26 12,-6 106,-99 111,-113 8,-22 -15,-37 -37,-26z"/>
  <path class="fil0" d="M4 569c29,9 119,5 154,5 36,0 44,-13 33,-43 -30,-9 -122,-5 -158,-5 -34,0 -37,17 -29,43z"/>
  <path class="fil0" d="M829 797c-26,14 -14,32 -1,45 14,13 24,24 38,37 34,33 62,73 86,62 47,-20 -27,-71 -38,-82 -32,-31 -64,-74 -85,-62z"/>
  <path class="fil0" d="M170 159c-36,22 17,54 41,81 14,16 61,71 84,53 21,-16 8,-34 -3,-44 -15,-13 -23,-21 -37,-37 -12,-13 -25,-23 -36,-35 -11,-11 -25,-33 -49,-18z"/>
  <path class="fil0" d="M962 574l130 0c19,0 30,-4 31,-23 2,-26 -16,-23 -35,-23l-122 0c-20,0 -34,-1 -36,20 -1,20 13,26 32,26z"/>
  <path class="fil0" d="M962 162c-33,-23 -47,4 -83,40 -12,12 -22,22 -35,35 -11,11 -33,24 -25,45 17,45 71,-24 82,-35 36,-36 66,-53 61,-85z"/>
  <path class="fil0" d="M538 34l0 117c0,41 51,48 51,-8l-4 -128c-9,-23 -47,-21 -47,19z"/>
 </g>
</svg>
